<mxfile host="app.diagrams.net" modified="2022-06-30T21:29:31.317Z" agent="5.0 (Macintosh; Intel Mac OS X 10_13_6) AppleWebKit/537.36 (KHTML, like Gecko) Chrome/100.0.4896.143 YaBrowser/22.5.0.1885 Yowser/2.5 Safari/537.36" etag="TNzvLpMwSmkGi18A2ds7" version="20.0.3" type="github">
  <diagram id="7LN0283j_Qn_dH_mFYG3" name="Page-1">
    <mxGraphModel dx="1065" dy="702" grid="1" gridSize="10" guides="1" tooltips="1" connect="1" arrows="1" fold="1" page="1" pageScale="1" pageWidth="827" pageHeight="1169" math="0" shadow="0">
      <root>
        <mxCell id="0" />
        <mxCell id="1" parent="0" />
        <mxCell id="NVOz99uvIIzxQoDJba3D-1" value="&lt;ol style=&quot;box-sizing: border-box; margin-top: 0px; margin-bottom: 10px; color: rgb(44, 45, 48); font-family: Roboto, &amp;quot;San Francisco&amp;quot;, &amp;quot;Helvetica Neue&amp;quot;, Helvetica, Arial; font-size: 15px; text-align: start; background-color: rgb(255, 255, 255);&quot;&gt;&lt;li style=&quot;box-sizing: border-box;&quot;&gt;Нахождение индексов максимального и минимального элемента массива (16)&lt;/li&gt;&lt;/ol&gt;" style="text;html=1;align=center;verticalAlign=middle;resizable=0;points=[];autosize=1;strokeColor=none;fillColor=none;" vertex="1" parent="1">
          <mxGeometry x="205" width="620" height="40" as="geometry" />
        </mxCell>
        <mxCell id="NVOz99uvIIzxQoDJba3D-4" value="" style="edgeStyle=orthogonalEdgeStyle;rounded=0;orthogonalLoop=1;jettySize=auto;html=1;" edge="1" parent="1" source="NVOz99uvIIzxQoDJba3D-2" target="NVOz99uvIIzxQoDJba3D-3">
          <mxGeometry relative="1" as="geometry" />
        </mxCell>
        <mxCell id="NVOz99uvIIzxQoDJba3D-2" value="Начало" style="ellipse;whiteSpace=wrap;html=1;" vertex="1" parent="1">
          <mxGeometry x="310" y="30" width="120" height="40" as="geometry" />
        </mxCell>
        <mxCell id="NVOz99uvIIzxQoDJba3D-6" value="" style="edgeStyle=orthogonalEdgeStyle;rounded=0;orthogonalLoop=1;jettySize=auto;html=1;" edge="1" parent="1" source="NVOz99uvIIzxQoDJba3D-3" target="NVOz99uvIIzxQoDJba3D-5">
          <mxGeometry relative="1" as="geometry" />
        </mxCell>
        <mxCell id="NVOz99uvIIzxQoDJba3D-3" value="size&lt;br&gt;array [size]" style="shape=parallelogram;perimeter=parallelogramPerimeter;whiteSpace=wrap;html=1;fixedSize=1;" vertex="1" parent="1">
          <mxGeometry x="310" y="100" width="120" height="60" as="geometry" />
        </mxCell>
        <mxCell id="NVOz99uvIIzxQoDJba3D-8" value="" style="edgeStyle=orthogonalEdgeStyle;rounded=0;orthogonalLoop=1;jettySize=auto;html=1;" edge="1" parent="1" source="NVOz99uvIIzxQoDJba3D-5" target="NVOz99uvIIzxQoDJba3D-7">
          <mxGeometry relative="1" as="geometry" />
        </mxCell>
        <mxCell id="NVOz99uvIIzxQoDJba3D-5" value="i = 1&lt;br&gt;max_index = 0&lt;br&gt;min_index = 0" style="rounded=0;whiteSpace=wrap;html=1;" vertex="1" parent="1">
          <mxGeometry x="310" y="190" width="120" height="60" as="geometry" />
        </mxCell>
        <mxCell id="NVOz99uvIIzxQoDJba3D-10" value="" style="edgeStyle=orthogonalEdgeStyle;rounded=0;orthogonalLoop=1;jettySize=auto;html=1;" edge="1" parent="1" source="NVOz99uvIIzxQoDJba3D-7" target="NVOz99uvIIzxQoDJba3D-9">
          <mxGeometry relative="1" as="geometry" />
        </mxCell>
        <mxCell id="NVOz99uvIIzxQoDJba3D-24" value="" style="edgeStyle=orthogonalEdgeStyle;rounded=0;orthogonalLoop=1;jettySize=auto;html=1;" edge="1" parent="1" source="NVOz99uvIIzxQoDJba3D-7" target="NVOz99uvIIzxQoDJba3D-23">
          <mxGeometry relative="1" as="geometry" />
        </mxCell>
        <mxCell id="NVOz99uvIIzxQoDJba3D-7" value="i &amp;lt; size" style="rhombus;whiteSpace=wrap;html=1;" vertex="1" parent="1">
          <mxGeometry x="330" y="280" width="80" height="80" as="geometry" />
        </mxCell>
        <mxCell id="NVOz99uvIIzxQoDJba3D-13" value="" style="edgeStyle=orthogonalEdgeStyle;rounded=0;orthogonalLoop=1;jettySize=auto;html=1;" edge="1" parent="1" source="NVOz99uvIIzxQoDJba3D-9" target="NVOz99uvIIzxQoDJba3D-12">
          <mxGeometry relative="1" as="geometry" />
        </mxCell>
        <mxCell id="NVOz99uvIIzxQoDJba3D-16" value="" style="edgeStyle=orthogonalEdgeStyle;rounded=0;orthogonalLoop=1;jettySize=auto;html=1;" edge="1" parent="1" source="NVOz99uvIIzxQoDJba3D-9" target="NVOz99uvIIzxQoDJba3D-15">
          <mxGeometry relative="1" as="geometry" />
        </mxCell>
        <mxCell id="NVOz99uvIIzxQoDJba3D-9" value="array[i]&amp;nbsp; &amp;gt; array[max_index}&amp;nbsp;" style="rhombus;whiteSpace=wrap;html=1;" vertex="1" parent="1">
          <mxGeometry x="295" y="390" width="150" height="80" as="geometry" />
        </mxCell>
        <mxCell id="NVOz99uvIIzxQoDJba3D-11" style="edgeStyle=orthogonalEdgeStyle;rounded=0;orthogonalLoop=1;jettySize=auto;html=1;exitX=0.5;exitY=1;exitDx=0;exitDy=0;" edge="1" parent="1" source="NVOz99uvIIzxQoDJba3D-7" target="NVOz99uvIIzxQoDJba3D-7">
          <mxGeometry relative="1" as="geometry" />
        </mxCell>
        <mxCell id="NVOz99uvIIzxQoDJba3D-20" value="" style="edgeStyle=orthogonalEdgeStyle;rounded=0;orthogonalLoop=1;jettySize=auto;html=1;" edge="1" parent="1" source="NVOz99uvIIzxQoDJba3D-12" target="NVOz99uvIIzxQoDJba3D-19">
          <mxGeometry relative="1" as="geometry" />
        </mxCell>
        <mxCell id="NVOz99uvIIzxQoDJba3D-12" value="max_index = i" style="rounded=0;whiteSpace=wrap;html=1;" vertex="1" parent="1">
          <mxGeometry x="310" y="490" width="120" height="60" as="geometry" />
        </mxCell>
        <mxCell id="NVOz99uvIIzxQoDJba3D-18" value="" style="edgeStyle=orthogonalEdgeStyle;rounded=0;orthogonalLoop=1;jettySize=auto;html=1;" edge="1" parent="1" source="NVOz99uvIIzxQoDJba3D-15" target="NVOz99uvIIzxQoDJba3D-17">
          <mxGeometry relative="1" as="geometry" />
        </mxCell>
        <mxCell id="NVOz99uvIIzxQoDJba3D-15" value="array[i]&amp;nbsp; &amp;lt;&amp;nbsp; array[min_index}&amp;nbsp;" style="rhombus;whiteSpace=wrap;html=1;" vertex="1" parent="1">
          <mxGeometry x="490" y="390" width="150" height="80" as="geometry" />
        </mxCell>
        <mxCell id="NVOz99uvIIzxQoDJba3D-17" value="min_index = i" style="rounded=0;whiteSpace=wrap;html=1;" vertex="1" parent="1">
          <mxGeometry x="505" y="490" width="120" height="60" as="geometry" />
        </mxCell>
        <mxCell id="NVOz99uvIIzxQoDJba3D-19" value="i = i +1" style="rounded=0;whiteSpace=wrap;html=1;" vertex="1" parent="1">
          <mxGeometry x="310" y="610" width="120" height="60" as="geometry" />
        </mxCell>
        <mxCell id="NVOz99uvIIzxQoDJba3D-21" value="" style="endArrow=classic;html=1;rounded=0;exitX=0.5;exitY=1;exitDx=0;exitDy=0;" edge="1" parent="1" source="NVOz99uvIIzxQoDJba3D-17">
          <mxGeometry width="50" height="50" relative="1" as="geometry">
            <mxPoint x="570" y="620" as="sourcePoint" />
            <mxPoint x="370" y="580" as="targetPoint" />
            <Array as="points">
              <mxPoint x="565" y="580" />
              <mxPoint x="470" y="580" />
            </Array>
          </mxGeometry>
        </mxCell>
        <mxCell id="NVOz99uvIIzxQoDJba3D-22" value="" style="endArrow=classic;html=1;rounded=0;" edge="1" parent="1">
          <mxGeometry width="50" height="50" relative="1" as="geometry">
            <mxPoint x="640" y="430" as="sourcePoint" />
            <mxPoint x="560" y="580" as="targetPoint" />
            <Array as="points">
              <mxPoint x="680" y="430" />
              <mxPoint x="680" y="580" />
            </Array>
          </mxGeometry>
        </mxCell>
        <mxCell id="NVOz99uvIIzxQoDJba3D-26" value="" style="edgeStyle=orthogonalEdgeStyle;rounded=0;orthogonalLoop=1;jettySize=auto;html=1;" edge="1" parent="1" source="NVOz99uvIIzxQoDJba3D-23" target="NVOz99uvIIzxQoDJba3D-25">
          <mxGeometry relative="1" as="geometry" />
        </mxCell>
        <mxCell id="NVOz99uvIIzxQoDJba3D-23" value="max_index&lt;br&gt;min_index" style="shape=document;whiteSpace=wrap;html=1;boundedLbl=1;" vertex="1" parent="1">
          <mxGeometry x="505" y="280" width="120" height="80" as="geometry" />
        </mxCell>
        <mxCell id="NVOz99uvIIzxQoDJba3D-25" value="Конец" style="ellipse;whiteSpace=wrap;html=1;" vertex="1" parent="1">
          <mxGeometry x="705" y="290" width="120" height="60" as="geometry" />
        </mxCell>
        <mxCell id="NVOz99uvIIzxQoDJba3D-27" value="" style="endArrow=classic;html=1;rounded=0;" edge="1" parent="1">
          <mxGeometry width="50" height="50" relative="1" as="geometry">
            <mxPoint x="370" y="670" as="sourcePoint" />
            <mxPoint x="370" y="260" as="targetPoint" />
            <Array as="points">
              <mxPoint x="370" y="710" />
              <mxPoint x="280" y="710" />
              <mxPoint x="280" y="260" />
            </Array>
          </mxGeometry>
        </mxCell>
        <mxCell id="NVOz99uvIIzxQoDJba3D-28" value="yes" style="text;html=1;strokeColor=none;fillColor=none;align=center;verticalAlign=middle;whiteSpace=wrap;rounded=0;" vertex="1" parent="1">
          <mxGeometry x="370" y="350" width="60" height="30" as="geometry" />
        </mxCell>
        <mxCell id="NVOz99uvIIzxQoDJba3D-29" value="yes" style="text;html=1;strokeColor=none;fillColor=none;align=center;verticalAlign=middle;whiteSpace=wrap;rounded=0;" vertex="1" parent="1">
          <mxGeometry x="370" y="460" width="60" height="30" as="geometry" />
        </mxCell>
        <mxCell id="NVOz99uvIIzxQoDJba3D-30" value="yes" style="text;html=1;strokeColor=none;fillColor=none;align=center;verticalAlign=middle;whiteSpace=wrap;rounded=0;" vertex="1" parent="1">
          <mxGeometry x="570" y="460" width="60" height="30" as="geometry" />
        </mxCell>
        <mxCell id="NVOz99uvIIzxQoDJba3D-31" value="no" style="text;html=1;strokeColor=none;fillColor=none;align=center;verticalAlign=middle;whiteSpace=wrap;rounded=0;" vertex="1" parent="1">
          <mxGeometry x="420" y="290" width="60" height="30" as="geometry" />
        </mxCell>
        <mxCell id="NVOz99uvIIzxQoDJba3D-32" value="no" style="text;html=1;strokeColor=none;fillColor=none;align=center;verticalAlign=middle;whiteSpace=wrap;rounded=0;" vertex="1" parent="1">
          <mxGeometry x="430" y="400" width="60" height="30" as="geometry" />
        </mxCell>
        <mxCell id="NVOz99uvIIzxQoDJba3D-33" value="no" style="text;html=1;strokeColor=none;fillColor=none;align=center;verticalAlign=middle;whiteSpace=wrap;rounded=0;" vertex="1" parent="1">
          <mxGeometry x="625" y="400" width="60" height="30" as="geometry" />
        </mxCell>
        <mxCell id="NVOz99uvIIzxQoDJba3D-35" value="тут логично исключение ошибки массива из 0 элементов. Надеемся,&lt;br&gt;что&amp;nbsp; при реализации можно сравнить значения элементов массива. Например язык программирования сравнит строки.&amp;nbsp; Либо добавляем логику приведения к числам или избежания ошибок." style="text;html=1;strokeColor=none;fillColor=none;align=center;verticalAlign=middle;whiteSpace=wrap;rounded=0;" vertex="1" parent="1">
          <mxGeometry x="460" y="160" width="210" height="30" as="geometry" />
        </mxCell>
        <mxCell id="NVOz99uvIIzxQoDJba3D-37" value="" style="shape=flexArrow;endArrow=classic;html=1;rounded=0;width=8;endSize=6.62;" edge="1" parent="1">
          <mxGeometry width="50" height="50" relative="1" as="geometry">
            <mxPoint x="454" y="174.5" as="sourcePoint" />
            <mxPoint x="374" y="174.5" as="targetPoint" />
          </mxGeometry>
        </mxCell>
      </root>
    </mxGraphModel>
  </diagram>
</mxfile>
